<svg width="2116" height="1612" viewBox="0 0 2116 1612" fill="none" xmlns="http://www.w3.org/2000/svg">
<path d="M817.048 1385.5C1104.9 1569.06 1401.42 1682.97 1649.46 1717.31C1893.23 1751.06 2108.75 1709.55 2206.94 1555.58C2305.13 1401.61 2251.86 1188.69 2118.43 981.9C1982.67 771.492 1754.31 550.687 1466.46 367.127C1178.61 183.566 882.088 69.6552 634.049 35.3152C390.279 1.56614 174.758 43.0776 76.5698 197.051C-21.6184 351.024 31.6532 563.944 165.078 770.73C300.839 981.138 529.198 1201.94 817.048 1385.5Z" stroke="#E8E7E7" stroke-width="90"/>
<path d="M-131 1732.4H1891.28L1024.59 1519.36L505.159 1189.58L84.9437 687.617L9.07161 270.286L189.997 51.4057L694.839 4.71126L1374.77 270.286L2151 1008.64V-91.5959H-131V1732.4Z" fill="#E8E7E7"/>
</svg>
